<svg xmlns="http://www.w3.org/2000/svg" viewBox="-6 -10 172 172" width="1024" height="1024">
  
  <defs><radialGradient id="skin" cx="38%" cy="32%" r="75%"><stop offset="0" stop-color="#b19bff"/><stop offset="1" stop-color="#6a4be0"/></radialGradient></defs>
  <ellipse cx="80" cy="150" rx="40.5" ry="6" fill="#000" opacity=".18"/>
  <g class="hic"><g class="g">
    <ellipse cx="56.78" cy="140" rx="13" ry="8" fill="#4b31a8"/><ellipse cx="103.22" cy="140" rx="13" ry="8" fill="#4b31a8"/>
    <path d="M78 42 C 72 28, 86 20, 92 30" fill="none" stroke="#4b31a8" stroke-width="4" stroke-linecap="round"/>
    <ellipse cx="80" cy="91" rx="54" ry="51" fill="url(#skin)" stroke="#4b31a8" stroke-width="3"/>
    <ellipse cx="57.32" cy="60.400000000000006" rx="14" ry="7" fill="#fff" opacity=".28" transform="rotate(-28 57.32 60.400000000000006)"/>
    <clipPath id="belly"><ellipse cx="80" cy="120.58" rx="27" ry="16.830000000000002"/></clipPath>
    <ellipse cx="80" cy="120.58" rx="27" ry="16.830000000000002" fill="#3d2a8a" opacity="0.35"/>
    <g clip-path="url(#belly)"><g class="gurgle"></g></g>
    <ellipse cx="80" cy="120.58" rx="27" ry="16.830000000000002" fill="none" stroke="#4b31a8" stroke-width="2" opacity=".45"/>
    <ellipse cx="67.85" cy="113.0065" rx="5.94" ry="3.0294000000000003" fill="#fff" opacity=".35" transform="rotate(-20 67.85 113.0065)"/>
    <g class="eye"><ellipse cx="60" cy="67" rx="12" ry="13" fill="#fff"/><circle cx="62" cy="70" r="6" fill="#1d1033"/><circle cx="64.5" cy="67" r="2" fill="#fff"/></g><g class="eye"><ellipse cx="100" cy="67" rx="12" ry="13" fill="#fff"/><circle cx="102" cy="70" r="6" fill="#1d1033"/><circle cx="104.5" cy="67" r="2" fill="#fff"/></g><path d="M68 90 Q80 101 92 90" fill="none" stroke="#2a1650" stroke-width="4" stroke-linecap="round"/><ellipse cx="46" cy="85" rx="9" ry="4.95" fill="#ff8fb1" opacity="0.45"/><ellipse cx="114" cy="85" rx="9" ry="4.95" fill="#ff8fb1" opacity="0.45"/>
  </g></g>
  
</svg>
