<svg xmlns="http://www.w3.org/2000/svg" viewBox="-12 -24 184 184" width="160" height="160">
  <style>
    .eye { transform-box: fill-box; transform-origin: center; animation: blink 4.4s infinite; }
    .lid { transform-box: fill-box; transform-origin: 0% 100%; }
    .sweat { animation: sweat 1.4s ease-in infinite; }
    .fly { transform-box: fill-box; transform-origin: center; }
    .f1 { animation: buzz1 1.1s linear infinite; }
    .f2 { animation: buzz2 .9s linear infinite; }
    @keyframes blink { 0%, 92%, 100% { transform: scaleY(1); } 95% { transform: scaleY(.1); } }
    @keyframes sweat { 0% { transform: translateY(0); opacity: 0; } 20% { opacity: 1; } 100% { transform: translateY(12px); opacity: 0; } }
    @keyframes buzz1 { 0% { transform: translate(0,0); } 25% { transform: translate(9px,-5px); } 50% { transform: translate(2px,-10px); } 75% { transform: translate(-7px,-4px); } 100% { transform: translate(0,0); } }
    .fl { transform-box: fill-box; transform-origin: 50% 100%; }
    .fa { animation: flick .45s ease-in-out infinite alternate; }
    .fb { animation: flick .38s ease-in-out .1s infinite alternate-reverse; }
    .fc { animation: flick .52s ease-in-out .2s infinite alternate; }
    .ember { opacity: 0; }
    .e1 { animation: rise 1.1s ease-out infinite; }
    .e2 { animation: rise 1.1s ease-out .35s infinite; }
    .e3 { animation: rise 1.1s ease-out .7s infinite; }
    @keyframes flick { from { transform: scale(1, 1) skewX(0); } to { transform: scale(.92, 1.14) skewX(4deg); } }
    @keyframes rise { 0% { opacity: 1; transform: translateY(0); } 100% { opacity: 0; transform: translateY(-36px); } }
    @keyframes buzz2 { 0% { transform: translate(0,0); } 25% { transform: translate(-8px,4px); } 50% { transform: translate(-3px,9px); } 75% { transform: translate(6px,3px); } 100% { transform: translate(0,0); } }
    .g { transform-box: fill-box; transform-origin: 50% 100%; animation: hop .6s ease-in-out infinite; }
    .lid { animation: pop .6s ease-in-out infinite; }
    .heart { transform-box: fill-box; transform-origin: center; opacity: 0; }
    .h1 { animation: float 1.4s ease-out infinite; }
    .h2 { animation: float 1.4s ease-out .7s infinite; }
    @keyframes hop { 0%, 100% { transform: translateY(0) scale(1.03, .97); } 50% { transform: translateY(-10px) scale(.98, 1.02); } }
    @keyframes pop { 0%, 100% { transform: translateY(0); } 50% { transform: translateY(-6px) rotate(-6deg); } }
    @keyframes float { 0% { opacity: 0; transform: translateY(0) scale(.6); } 25% { opacity: 1; } 100% { opacity: 0; transform: translateY(-24px) scale(1); } }
  </style>
  <defs><linearGradient id="metal" x1="0" y1="0" x2="1" y2="0"><stop offset="0" stop-color="#3fae85"/><stop offset=".35" stop-color="#62d6a9"/><stop offset="1" stop-color="#2e9670"/></linearGradient></defs>
  <ellipse cx="80" cy="153" rx="42" ry="5" fill="#000" opacity=".18"/>
  
  <g class="g">
    <ellipse cx="62" cy="149" rx="9" ry="5" fill="#1d6b4f"/><ellipse cx="98" cy="149" rx="9" ry="5" fill="#1d6b4f"/>
    <path d="M42 62 L118 62 L112 140 Q111 147 104 147 L56 147 Q49 147 48 140 Z" fill="url(#metal)" stroke="#1d6b4f" stroke-width="3" stroke-linejoin="round"/>
    <path d="M53 74 L56 136 M107 74 L104 136" stroke="#1d6b4f" stroke-width="3" stroke-linecap="round" opacity=".3"/>
    <rect x="36" y="56" width="88" height="10" rx="5" fill="#6fe0b4" stroke="#1d6b4f" stroke-width="3"/>
    
    <g><circle cx="80" cy="44" r="10" fill="#f6f5ef" stroke="#a9a89c" stroke-width="1.5"/>
    <path d="M75 42 l4 3 l3 -5 M78 48.5 l5 -1" fill="none" stroke="#b9b8ac" stroke-width="1.2" stroke-linecap="round"/></g>
    <g transform="rotate(20 104 47)"><rect x="99" y="38" width="10" height="18" rx="2" fill="#e5484d" stroke="#8f2228" stroke-width="1.5"/><rect x="99" y="44" width="10" height="5" fill="#fff" opacity=".8"/></g>
    <g><circle cx="56" cy="50" r="7" fill="#f6f5ef" stroke="#a9a89c" stroke-width="1.5"/>
    <path d="M52.5 48.6 l2.8000000000000003 2.1 l2.1 -3.5 M54.6 53.15 l3.5 -0.7000000000000001" fill="none" stroke="#b9b8ac" stroke-width="1.2" stroke-linecap="round"/></g>
    <g><circle cx="66" cy="52" r="8" fill="#f6f5ef" stroke="#a9a89c" stroke-width="1.5"/>
    <path d="M62 50.4 l3.2 2.4 l2.4 -4 M64.4 55.6 l4 -0.8" fill="none" stroke="#b9b8ac" stroke-width="1.2" stroke-linecap="round"/></g>
    <g><circle cx="95" cy="53" r="7" fill="#f6f5ef" stroke="#a9a89c" stroke-width="1.5"/>
    <path d="M91.5 51.6 l2.8000000000000003 2.1 l2.1 -3.5 M93.6 56.15 l3.5 -0.7000000000000001" fill="none" stroke="#b9b8ac" stroke-width="1.2" stroke-linecap="round"/></g>
    <g transform="translate(0 -18) rotate(-4 80 51)"><g class="lid">
      <path d="M40 48 Q80 30 120 48 Z" fill="#6fe0b4" stroke="#1d6b4f" stroke-width="3" stroke-linejoin="round"/>
      <rect x="72" y="33" width="16" height="6" rx="3" fill="#6fe0b4" stroke="#1d6b4f" stroke-width="2.5"/>
      <rect x="34" y="46" width="92" height="10" rx="5" fill="#6fe0b4" stroke="#1d6b4f" stroke-width="3"/>
    </g></g>
    <path d="M57 96 Q66 85 75 96" fill="none" stroke="#173b2e" stroke-width="4" stroke-linecap="round"/><path d="M85 96 Q94 85 103 96" fill="none" stroke="#173b2e" stroke-width="4" stroke-linecap="round"/><path d="M66 112 Q80 132 94 112 Z" fill="#173b2e" stroke="#173b2e" stroke-width="3" stroke-linejoin="round"/><ellipse cx="80" cy="124" rx="7" ry="3.5" fill="#ff6f91"/><ellipse cx="55" cy="107" rx="6" ry="3.5" fill="#ff8fb1" opacity="0.85"/><ellipse cx="105" cy="107" rx="6" ry="3.5" fill="#ff8fb1" opacity="0.85"/>
  </g>
  <path class="heart h1" d="M18 40 c0 -6 8 -6 8 0 c0 -6 8 -6 8 0 c0 6 -8 10 -8 12 c0 -2 -8 -6 -8 -12z" fill="#ff5c8a"/>
  <path class="heart h2" d="M128 50 c0 -5 7 -5 7 0 c0 -5 7 -5 7 0 c0 5 -7 9 -7 11 c0 -2 -7 -6 -7 -11z" fill="#ff5c8a"/>
  
</svg>
